<svg width="36" height="36" viewBox="0 0 36 36" fill="none" xmlns="http://www.w3.org/2000/svg">
<circle cx="18" cy="18" r="17.5" stroke="#8454F5"/>
<path d="M24.9854 13.762C24.4844 13.984 23.9462 14.134 23.3804 14.2018C23.9642 13.8524 24.401 13.3026 24.6092 12.655C24.0607 12.9807 23.4604 13.2101 22.8344 13.333C22.4134 12.8835 21.8559 12.5855 21.2482 12.4854C20.6406 12.3853 20.0169 12.4886 19.474 12.7793C18.931 13.07 18.4993 13.5318 18.2457 14.093C17.9921 14.6542 17.9309 15.2834 18.0716 15.883C16.9602 15.8272 15.873 15.5383 14.8805 15.0351C13.8879 14.5319 13.0123 13.8257 12.3104 12.9622C12.0704 13.3762 11.9324 13.8562 11.9324 14.3674C11.9321 14.8276 12.0455 15.2807 12.2623 15.6866C12.4792 16.0925 12.7929 16.4386 13.1756 16.6942C12.7318 16.68 12.2977 16.5601 11.9096 16.3444V16.3804C11.9096 17.0258 12.1328 17.6514 12.5415 18.151C12.9502 18.6505 13.5192 18.9933 14.1518 19.1212C13.7401 19.2326 13.3084 19.249 12.8894 19.1692C13.0679 19.7245 13.4156 20.2102 13.8838 20.5581C14.3521 20.906 14.9174 21.0989 15.5006 21.1096C14.5105 21.8868 13.2877 22.3084 12.029 22.3066C11.806 22.3066 11.5833 22.2936 11.3618 22.2676C12.6395 23.0891 14.1268 23.525 15.6458 23.5234C20.7878 23.5234 23.5988 19.2646 23.5988 15.571C23.5988 15.451 23.5958 15.3298 23.5904 15.2098C24.1372 14.8143 24.6092 14.3247 24.9842 13.7638L24.9854 13.762Z" fill="#8454F5"/>
</svg>
