<svg width="36" height="36" viewBox="0 0 36 36" fill="none" xmlns="http://www.w3.org/2000/svg">
<circle cx="18" cy="18" r="18" fill="#8454F5"/>
<g clip-path="url(#clip0_5_2084)">
<path d="M24.8997 14.7044C24.8181 14.4136 24.6593 14.1502 24.4401 13.9424C24.2147 13.7282 23.9384 13.575 23.6373 13.4972C22.5105 13.2002 17.9961 13.2002 17.9961 13.2002C16.1141 13.1788 14.2325 13.273 12.3621 13.4822C12.061 13.5658 11.7852 13.7224 11.5593 13.9382C11.3373 14.1518 11.1765 14.4152 11.0925 14.7038C10.8907 15.7909 10.7927 16.8946 10.7997 18.0002C10.7925 19.1048 10.8903 20.2082 11.0925 21.2966C11.1747 21.584 11.3349 21.8462 11.5575 22.058C11.7801 22.2698 12.0573 22.4228 12.3621 22.5038C13.5039 22.8002 17.9961 22.8002 17.9961 22.8002C19.8805 22.8217 21.7644 22.7275 23.6373 22.5182C23.9384 22.4405 24.2147 22.2872 24.4401 22.073C24.6621 21.8612 24.8199 21.5978 24.8991 21.311C25.1061 20.2244 25.2068 19.1202 25.1997 18.014C25.2153 16.9032 25.1147 15.7938 24.8997 14.7038V14.7044ZM16.5609 20.0546V15.9464L20.3169 18.0008L16.5609 20.0546Z" fill="white"/>
</g>
<defs>
<clipPath id="clip0_5_2084">
<rect width="14.4" height="14.4" fill="white" transform="translate(10.7998 10.7998)"/>
</clipPath>
</defs>
</svg>
